<svg width="41" height="40" viewBox="0 0 41 40" fill="none" xmlns="http://www.w3.org/2000/svg">
<g id="S3 Logo White Flat - Large">
<g id="S3 Logo White Flat - Large_2">
<path d="M29.1841 2.6087C29.1841 1.16795 30.3521 0 31.793 0H38.3911C39.832 0 41 1.16795 41 2.6087V37.3913C41 38.832 39.832 40 38.3911 40H31.793C30.3521 40 29.1841 38.832 29.1841 37.3913V2.6087Z" fill="white"/>
<path d="M14.5209 2.6087C14.5209 1.16795 15.6889 0 17.1298 0H23.8703C25.3111 0 26.4792 1.16795 26.4792 2.6087V37.3913C26.4792 38.832 25.3111 40 23.8703 40H17.1298C15.6889 40 14.5209 38.832 14.5209 37.3913V2.6087Z" fill="white"/>
<path d="M0 2.6087C0 1.16795 1.16805 0 2.60892 0H9.20703C10.6479 0 11.8159 1.16795 11.8159 2.6087V37.3913C11.8159 38.832 10.6479 40 9.20703 40H2.60892C1.16805 40 0 38.832 0 37.3913V2.6087Z" fill="white"/>
</g>
</g>
</svg>
